<?xml version="1.0" encoding="UTF-8"?>
<svg version="1.1" viewBox="0 0 1784 1384" width="1280" height="1280" xmlns="http://www.w3.org/2000/svg">
<path transform="translate(689,6)" d="m0 0 6 1 16 9 19 14 7 7 8 7 9 9 9 11 12 17 14 24 10 18 10 24 7 19 8 28 6 31 4 36 1 17v13l-1 21-4 34-5 23-6 18-2 3-5-2-13-9-13-10-10-9-22-22-7-8-12-14-12-17-9-15-10-18-9-19-11-28-8-24-6-28-3-21-2-25v-17l3-32 5-25 7-23 6-15z" fill="#FDFDFD"/>
<path transform="translate(1016,324)" d="m0 0h35l22 3 22 6 24 10 15 8 6 5 1 5-3 7-9 12-10 10-17 13-19 12-16 7-27 9-28 7-17 2h-23l-28-2-23-4-22-6-16-6-17-8-7-6 1-4 7-8 15-15 17-13 12-8 14-9 23-11 24-8 22-5 11-2z" fill="#FDFDFD"/>
<path transform="translate(796,804)" d="m0 0h105l14 2 12 4 9 6 6 9 3 10v20l-3 10-6 9-10 6-13 4-5 1v1l13 3 8 5 6 8 4 13 2 43 3 3 7-1 4-6 4-14h4l-1 11-4 12-7 8-10 4-9 1h-12l-14-3-8-5-5-8-4-17-1-39-2-9-5-6-3-1h-17l-1 81h16l-1 5h-72l-6-1v-4l15-1v-159l-13-1-4-2zm64 4v75h11l9-2 6-4 5-6 3-11 1-8v-20l-2-11-4-7-6-4-7-2z" fill="#FDFDFD"/>
<path transform="translate(1204,804)" d="m0 0h95l19 3 18 6 12 7 9 8 7 11 5 12 3 13 1 8v28l-3 18-6 16-9 13-11 10-14 7-15 5-15 3-8 1-35 1h-46l-7-1v-4h16v-161h-13l-3-1zm64 4v161h16l11-2 9-5 5-5 6-9 5-16 3-24v-43l-3-24-5-15-7-9-5-4-8-3-10-2z" fill="#FDFDFD"/>
<path transform="translate(655,801)" d="m0 0h31l15 3 13 5 10 7 6 5 10 13 6 13 4 15 2 17v17l-2 18-4 15-6 12-9 12-2 3h-2l-1 3-14 9-14 5-9 2-10 1h-21l-17-3-14-5-11-7-8-8-9-14-5-12-4-19-1-24 2-16 4-16 5-12 6-10 8-10 11-8 12-6 13-4zm8 5-7 2-5 4-6 9-4 16-1 8v86l4 22 4 8 8 7 8 3h12l10-3 7-6 4-9 3-15 1-14v-76l-2-20-5-12-7-7-5-2-6-1z" fill="#FDFDFD"/>
<path transform="translate(397,804)" d="m0 0h91l15 2 13 4 10 5 7 6 5 8 3 10 1 7v10l-3 15-5 10-7 8-16 8-13 4-11 2-13 1h-14v65h32l-1 4-1 1h-87l-7-2v-3h16v-160l-13-1-3-1zm63 4v92h8l10-3 7-6 3-5 3-16 1-24-2-21-4-10-6-5-6-2z" fill="#FEFEFE"/>
<path transform="translate(799,440)" d="m0 0 2 2 3 26-1 23-5 26-7 21-10 21-12 19-12 14-10 9-15 10-17 9-8 2-3-3-2-10-1-10v-16l4-26 7-21 12-25 10-16 13-15 9-10 9-9 14-10z" fill="#FDFDFD"/>
<path transform="translate(274,801)" d="m0 0h23l17 3 14 3h6l4-4h2l1 32v18h-3l-6-9-7-11-8-10-7-7-10-6-5-2-6-1h-12l-10 3-8 6-3 6-1 5v8l4 9 7 6 16 7 28 8 13 5 11 7 9 9 6 12 3 16-1 17-4 13-7 11-8 9-11 7-13 4-10 1h-15l-27-4-19-3-2 6h-5l-1-17-1-37 1-3 4 1 9 15 11 13 8 9 9 7 10 5 9 2h11l12-3 8-6 4-7 1-6v-8l-4-11-8-6-16-7-36-12-12-7-10-9-6-10-4-12-1-14 3-16 6-12 9-10 8-6 11-5z" fill="#FDFDFD"/>
<path transform="translate(1506,801)" d="m0 0 4 1 4 9 13 36 22 60 12 31 10 29 2 1 9 1 1 4-2 1h-75l-2-1v-4h16l-6-17-11-34-1-1h-48l-1 5-11 30-7 17h19l1 4-2 1h-35l-2-4 1-1h11l3-10 10-27 12-31 15-42 9-24 10-27 2-5 1-1zm-28 49-10 28-11 31 1 3h42l-1-8-13-37-6-17z" fill="#FDFDFC"/>
<path transform="translate(1090,801)" d="m0 0 4 1 4 9 16 45 13 33 15 42 13 36 1 1 10 1 1 4-4 1h-72l-4-1 1-4h16l-7-19-11-33h-47l-4 10-15 42h18l1 4-1 1h-35l-3-1 1-4 11-1 6-16 12-33 6-16 15-42 11-28 9-23 3-8zm-27 48-4 9-6 16-10 28-3 9 2 1h42l-1-7-14-43-4-12z" fill="#FDFDFC"/>
<path transform="translate(1047,1037)" d="m0 0 65 1 16 3 9 6 4 8 1 4v13l-3 9-5 6-8 4-8 1v2l10 2 7 7 3 11 1 27 1 2 6-1 4-10 3-1-1 8-4 8-6 5-10 2-13-1-8-4-4-5-3-10-1-30-2-8-4-1h-12l-1 53 10 1 1 2-13 1h-35l-4-1v-2l8-1 1-107-10-1-1-2zm38 4-1 1v49l1 1h7l7-3 4-2 4-8 1-6v-17l-3-10-5-4-3-1z" fill="#FDFDFD"/>
<path transform="translate(660,1037)" d="m0 0h78l1 1 1 20v14l-3-1-9-17-5-6-8-4-10-2-10-1v51l10-1 6-4 5-6 6-11h1v49l-3-1-5-13-4-5-6-3-10-1v52l15-1 11-4 7-6h2l2-4 7-11 3-6 2-1v36l-2 1h-86l-3-1v-2l9-2v-105l-9-1-1-3z" fill="#FDFDFD"/>
<path transform="translate(1187,1037)" d="m0 0h79l2 29-1 5-4-4-7-13-6-7-11-4-6-1h-10l-1 50 11-1 6-4 6-7 5-9 2 2v45l-3 1-7-16-6-5-2-1-12-1 1 51h14l10-3 9-6 7-9 7-14 2 1v12l-1 23-3 1h-84l-2-1v-2l8-2 1-105-9-1-1-3z" fill="#FDFDFD"/>
<path transform="translate(567,1036)" d="m0 0h20l20 4 5-3 2 1 1 34-4-2-10-16-6-7-12-6h-15l-6 3-5 6-1 7 2 7 6 5 12 5 20 6 14 7 7 8 4 10 1 11-2 12-6 12-9 8-8 4-11 2-17-1-24-4-2 4h-3l-1-39 4 2 6 11 11 13 11 7 8 2h10l9-4 5-6v-11l-3-6-5-4-16-7-17-5-9-5-7-6-6-12v-20l4-10 6-8 8-6z" fill="#FDFDFD"/>
<path transform="translate(959,1037)" d="m0 0h3v3l-6 1-5-1 1 88 4 11 4 5 8 3h13l8-3 7-6 3-6 1-5 1-66v-19l-9-2v-3h24v3l-2 1h-7v81l-2 10-4 8-6 7-7 4-9 2h-25l-16-4-10-7-6-10-2-6-1-14v-71l-10-1v-2z" fill="#FDFDFC"/>
<path transform="translate(824,1036)" d="m0 0h22l20 4 6-3 1 2 1 34h-3l-10-18-7-9-6-4-13-2-9 3-6 7-4 11-2 13v40l3 16 4 9 4 6 9 4h11l9-5 8-9 10-18h4l-1 29v5l-8-2-20 4-15 1-14-2-12-4-9-6-9-9-5-10-3-11-1-16 1-16 4-13 6-11 9-9 9-6 11-4z" fill="#FDFDFD"/>
<path transform="translate(274,801)" d="m0 0h23l17 3 14 3h6l4-4h2l1 32v18h-3l-6-9-7-11-8-10-7-7-10-6-5-2-6-1h-15l1-2 4-1h9l8 1-4-1-21-1z" fill="#FEFEFE"/>
<path transform="translate(691,1047)" d="m0 0h3l1 16v29l10-1 6-4 5-6 6-11h1v49l-3-1-5-13-4-5-6-3-10-1v52l45-1-1-11 3-1v8l-1 4h2l-1 3h-25l-22 1h-5l-1-3 1-80z" fill="#F9F0CF"/>
<path transform="translate(1220,1043)" d="m0 0 2 1v48l11-1 6-4 6-7 5-9 2 2v45l-3 1-7-16-6-5-2-1-12-1 1 51h32l10-1 1-18h3l1 22h-53l-1-2 1-2 1-70 1-25z" fill="#F9EFCB"/>
<path transform="translate(969,1320)" d="m0 0h27l5 3 2 4v8l-3 8 4 2 1 2v9l-4 5-7 2h-25l-1-6v-36zm6 4v15h19l2-2v-10l-5-3zm0 20v14h20l4-3v-7l-4-4z" fill="#FEFEFE"/>
<path transform="translate(1706,1319)" d="m0 0 5 1 1 1v19l-1 23h-5l-7-7-11-14-7-9-1 21-1 9h-5l-1-1v-40l1-2h5l7 8 11 14 6 7 1-29z" fill="#FEFEFE"/>
<path transform="translate(593,1319)" d="m0 0 6 2 11 14 11 13 1 2 1-29 1-1h6v42l-1 1h-5l-13-15-7-9-4-5-1 28-1 1h-5l-1-1v-41z" fill="#FDFDFB"/>
<path transform="translate(513,1319)" d="m0 0h5l1 1v43h-5l-7-7-8-10-10-13-1 29-1 1h-5l-1-7v-24l1-12h5l7 8 8 10 9 11h1v-29z" fill="#FEFEFE"/>
<path transform="translate(841,1319)" d="m0 0 7 3 13 16 10 12 1-30 4-1 2 1v42l-5 1-5-5-14-17-5-6v-2h-2v29l-1 1h-6v-43z" fill="#FEFEFE"/>
<path transform="translate(731,1320)" d="m0 0h26l8 3 6 8 2 5v11l-5 10-6 4-8 2h-22l-1-1zm7 5-1 6v17l1 9 2 1h13l8-3 4-5 2-5v-7l-4-8-5-4-3-1z" fill="#F9F0CE"/>
<path transform="translate(301,1319)" d="m0 0 6 2 11 14 11 13 3 3v-31l4-1 2 4-1 40h-5l-11-13-8-10-5-6-2-1 1 2v19l-1 9h-6v-43z" fill="#FDFDFD"/>
<path transform="translate(1138,1319)" d="m0 0 11 1 8 5 5 8 1 3v12l-4 8-8 6-3 1h-16l-9-6-5-8-1-3v-9l5-10 7-6zm0 5-8 3-5 7-2 10 3 7 5 5 5 2h9l6-3 5-6 1-7-2-10-8-7z" fill="#F9F1D3"/>
<path transform="translate(1181,1320)" d="m0 0h24l7 3 3 5 1 7-2 9-5 5 1 4 5 8v2l-6-1-7-10-4-1h-9l-2 12h-5l-1-1zm11 4-4 1-1 7v9l1 3 2 1h9l8-2 2-3v-10l-3-4-13-2z" fill="#FDFDFD"/>
<path transform="translate(96,1320)" d="m0 0h23l7 3 4 7v9l-4 7-3 3 1 4 5 8v2l-6-1-8-10-13-2-1 13h-5l-1-5v-32zm6 5-1 11 1 8 1 1h12l6-2 3-5-1-8-4-4-3-1z" fill="#FDFDFC"/>
<path transform="translate(824,1036)" d="m0 0h22l20 4 6-3 1 2 1 34h-3l-10-18-7-9-6-4-13-2-9 3-6 7-4 11-2 13h-2l1 59h-1l-1-12v-61l6-14z" fill="#FDFDFD"/>
<path transform="translate(1409,1319)" d="m0 0 3 1v19h24v-19h7l1 2-1 41h-6l-1-1v-18h-24v19h-6l-1-7v-36z" fill="#FDFBF6"/>
<path transform="translate(1518,1320)" d="m0 0h24l6 3 4 4 1 3v10l-4 6-8 4-16 1-1 12h-5l-1-1-1-12v-26zm7 5-1 1v18l2 1h12l5-2 3-4v-9l-4-4-3-1z" fill="#FDFCFA"/>
<path transform="translate(1571,1320)" d="m0 0h24l8 4 3 5v12l-5 6-7 3-16 1-1 12h-5l-1-1zm7 5-1 1v18l1 1h12l7-3 3-4-1-8-4-4-3-1z" fill="#FDFCF7"/>
<path transform="translate(1234,1320)" d="m0 0h30l1 4-1 1h-22l-1 14h22l1 4-23 1v14h24l1 5h-31l-1-1z" fill="#FEFEFE"/>
<path transform="translate(251,1319)" d="m0 0 29 1 1 4-1 1h-22l-1 14h21l2 1v3l-23 1v14h24l1 4-1 1h-30l-1-1v-42z" fill="#FEFEFE"/>
<path transform="translate(43,1320)" d="m0 0h23l7 3 4 8v9l-4 6-8 4h-17v13h-5l-1-7v-35zm6 5-1 1v17l3 2h11l7-3 2-4v-6l-2-4-6-3z" fill="#FEFEFE"/>
<path transform="translate(150,1319)" d="m0 0 29 1-1 5h-22l-1 14h21l1 4-5 1h-17l1 13 23 1 1 5h-31l-1-6v-37z" fill="#FDFDFB"/>
<path transform="translate(1625,1319)" d="m0 0 29 1 1 4-1 1h-24l1 13 21 1-1 5h-21l1 14h24v5h-31v-43z" fill="#F9EFCB"/>
<path transform="translate(791,1320)" d="m0 0h30l1 3-1 2h-24v14h21l2 1v3l-23 1v14h25l1 4-1 1h-31z" fill="#FEFEFE"/>
<path transform="translate(1024,1320)" d="m0 0h30l1 2-1 3h-24v14h21l1 4-1 1h-21v14h25l-1 5h-30z" fill="#F9EFCB"/>
<path transform="translate(873,1116)" d="m0 0 3 1-1 29v5l-8-2-20 4-15 1-14-2-12-4-4-2v-2l5 1 14 3 13 1h11l9-5 8-9 10-18z" fill="#FDFDFD"/>
<path transform="translate(1479,1319)" d="m0 0 4 1 8 16 11 23v4l-5-1-6-9h-22l-5 10h-5l3-10 9-20 6-12zm1 9-8 16v4h17l-1-5-6-14z" fill="#FDFCF9"/>
<path transform="translate(443,1319)" d="m0 0h4l8 17 10 23 1 4h-5l-6-10h-22l-5 10h-5l3-10 13-29zm1 9-4 6-5 12v2h18l-1-5-6-15z" fill="#FAF2D5"/>
<path transform="translate(1740,1319)" d="m0 0 16 1 3 2v5l-6-1-4-1h-9l-4 4v7l11 3 11 4 3 4v9l-6 6-11 2-10-2-5-3-1-4 11 2 10 1 5-3 1-4-4-4-14-4-6-4-2-4 1-9 5-5z" fill="#F9F1D4"/>
<path transform="translate(670,1319)" d="m0 0 10 1 5 3 2 5-5 1-8-4h-7l-8 4-3 5-1 4v9l3 6 7 4h10l9-4h3l-1 5-8 5h-16l-7-4-4-5-3-7v-11l4-9 7-6z" fill="#F9F0D1"/>
<path transform="translate(567,1036)" d="m0 0h20l20 4 5-3 2 1 1 34-4-2-10-16-6-7-12-6h-22l3-3h3z" fill="#FDFDFD"/>
<path transform="translate(193,1319)" d="m0 0 6 1 5 11 9 22 3-3 11-25 3-5 5-1-1 5-10 24-7 14-4 2-4-4-13-29-3-7z" fill="#F9F0CF"/>
<path transform="translate(1073,1320)" d="m0 0h31v5h-24v14l21 1 1 5-1 1h-21v16l-1 1h-5l-1-1z" fill="#FAF2D7"/>
<path transform="translate(743,1115)" d="m0 0h1v36l-2 1h-51l4-2 33-1h14l1-2h-2l1-12-2 2v10l-11 1h-19l12-6 6-5h2l2-4 7-11 3-6z" fill="#FEFEFE"/>
<path transform="translate(722,1070)" d="m0 0h1v49l-3-1-5-13-4-5-6-3-10-1v-4l10-1 6-4 5-6z" fill="#FEFEFE"/>
<path transform="translate(1250,1071)" d="m0 0 2 2v45l-3 1-7-16-6-5-2-1-12-1 1-4 10-1 6-4 6-7z" fill="#FEFEFE"/>
<path transform="translate(1486,816)" d="m0 0h1l-1 7-12 36-8 22-12 32-6 15-12 32-4 6-2 1 1-8 10-27 1-2h2l3-9 7-16 13-36 9-25z" fill="#F9EFCB"/>
<path transform="translate(892,1320)" d="m0 0h36l1 4-14 2-1 37h-5l-1-1v-37h-14l-2-1z" fill="#FDFCFA"/>
<path transform="translate(352,1320)" d="m0 0h36v4l-4 1h-10v38h-6l-1-37-14-1z" fill="#FEFEFE"/>
<path transform="translate(1330,1320)" d="m0 0h36l1 4-15 1-1 38h-5l-1-1v-37l-15-1z" fill="#FEFEFE"/>
<path transform="translate(947,1043)" d="m0 0 3 1 1 70v24l-4-2-1-5v-87z" fill="#F9EFCB"/>
<path transform="translate(1047,1037)" d="m0 0h9v113l-13 1v-2l8-1 1-107-10-1-1-2z" fill="#FEFEFE"/>
<path transform="translate(731,1320)" d="m0 0h26l4 2h-29v2l7-1h12l12 1 2 9-7-6-3-1-17-1v32l2 1-6 2-1 2h21v1h-22l-1-1z" fill="#FEFEFE"/>
<path transform="translate(1073,810)" d="m0 0 1 4-15 43-15 39-11 30-13 37-5 7-1-2 4-16h2l3-9 6-14 7-19 7-18 10-29z" fill="#F9EFCB"/>
<path transform="translate(1072,810)" d="m0 0 1 3-16 42-12 33-7 20-7 18-6 15-4 9-2 2 2-9 13-34 10-29 18-47 8-21z" fill="#FEFEFE"/>
<path transform="translate(824,1036)" d="m0 0h22l10 9 6 7v2h-2l-6-8-6-4-13-2-9 3-6 7-4 11-2 13h-2l1 59h-1l-1-12v-61l6-14z" fill="#F9F0CF"/>
<path transform="translate(969,1322)" d="m0 0h5v35l4 2h12l9-2 1-14 4 2 1 2v9l-4 5-7 2h-25z" fill="#F9EFCC"/>
<path transform="translate(1221,811)" d="m0 0h1v163h-11l-7-1v-4h16v-157z" fill="#FEFEFE"/>
<path transform="translate(413,805)" d="m0 0h3l-1 119-1 41h-1l-1-38v-54l1-66z" fill="#F9F1D3"/>
<path transform="translate(1270,1115)" d="m0 0 2 1v12l-1 21-2-3v-18h-3v18l-1 1-10 1h-18v-1l10-3 9-6 7-9z" fill="#FEFEFE"/>
<path transform="translate(815,806)" d="m0 0h1v28l-1 82v56l-1 2h-11l-6-1v-4l15-1 1-107 1-45z" fill="#F9F0CE"/>
<path transform="translate(569,1319)" d="m0 0h2v44h-6l-1-3v-40z" fill="#F9EFCC"/>
<path transform="translate(1024,1320)" d="m0 0h30l1 2-1 3h-24v14h21l1 4-1 1h-21v14h-1l-1-6v-30h-4z" fill="#FEFEFE"/>
<path transform="translate(1706,1319)" d="m0 0 5 1 1 1v19l-1 23h-5l-1-1v-11l-1-13v-18z" fill="#F9F1D2"/>
<path transform="translate(1490,802)" d="m0 0 2 1-11 30-13 36-10 28-8 20-6 13-1-3 10-26 15-42 9-24 10-27 2-5z" fill="#FEFEFE"/>
<path transform="translate(1740,1319)" d="m0 0 16 1 3 2v5l-6-1-4-1h-9l-4 4v7l7 2-1 5 7 1 2 2-12-2-8-5-2-4 1-9 5-5z" fill="#FDFDFA"/>
<path transform="translate(1625,1319)" d="m0 0 29 1 1 4-1 1h-24l1 13 21 1-1 5h-21v12h-1l-1-33-4-1z" fill="#FEFEFE"/>
<path transform="translate(874,1319)" d="m0 0 4 1v42l-5 1-2-1 1-42z" fill="#FAF2D5"/>
<path transform="translate(706,1319)" d="m0 0 5 1-1 43h-6v-43z" fill="#F9F1D3"/>
<path transform="translate(638,849)" d="m0 0h1v78l-2-4-2-6v-48l2-16z" fill="#F9EFCB"/>
<path transform="translate(1309,1320)" d="m0 0h6l1 2-1 41h-6z" fill="#FEFEFE"/>
<path transform="translate(592,1321)" d="m0 0 5 1 2 40-1 1h-5l-1-1z" fill="#F9F0CF"/>
<path transform="translate(841,1322)" d="m0 0h4l1 15v26h-6v-38z" fill="#F9EFCB"/>
<path transform="translate(1138,1319)" d="m0 0 11 1 8 5 5 8 1 3v12l-4 8-8 6-6 1 5-4 8-9 2-5v-8l-5-8-6-5-3-1h-13l-8 4-5 7-1-2 6-8 7-4z" fill="#FEFEFE"/>
<path transform="translate(1015,961)" d="m0 0h1l-1 8 5-6 1 3-1 3h18l1 4-1 1h-35l-3-1 1-4 11-1z" fill="#FDFBF4"/>
<path transform="translate(1451,915)" d="m0 0 1 4-6 15-10 26-4 6-2 1 1-8 10-27 1-2h2l3-9z" fill="#F9F1D4"/>
<path transform="translate(513,1322)" d="m0 0h4l1 2 1 39h-5l-2-4 1-4z" fill="#F9EFCC"/>
<path transform="translate(151,1335)" d="m0 0h1l1 9v12l3 1 23 1 1 5h-31l1-26z" fill="#F9F1D2"/>
<path transform="translate(614,958)" d="m0 0 4 1 12 6 12 4 22 2h33v1l-12 2h-32l-15-3-11-3-11-7z" fill="#F9EFCB"/>
<path transform="translate(1673,1322)" d="m0 0h3l1 3 2 21v17h-5l-1-1z" fill="#F9F1D3"/>
<path transform="translate(1181,1320)" d="m0 0h24l7 3 3 5 1 7-2 1-1-7-5-3-3-2h-2v1h-11l-7 2-2 3-1 29h-1z" fill="#FDFDFD"/>
<path transform="translate(1016,324)" d="m0 0h12l24 2 29 6 14 4-4 1-26-6-27-3h-21l-19 1v-1z" fill="#F9EFCE"/>
<path transform="translate(1053,1037)" d="m0 0h3v113l-13 1v-2l10-1z" fill="#F9EFCC"/>
<path transform="translate(899,426)" d="m0 0 16 2 17 3 9 2 10 1 25 1h31l-3 2h-45l-30-3-22-5-8-1z" fill="#F9EFCB"/>
<path transform="translate(230,967)" d="m0 0h26l34 5v1h-17l-13-2-23-2-2 6h-5z" fill="#F9EFCD"/>
<path transform="translate(450,1332)" d="m0 0 4 5v2h2l9 20 1 4h-5l-6-10-3-8-2-4z" fill="#F9F1D3"/>
<path transform="translate(1346,1322)" d="m0 0h3l2 41h-5l-1-1z" fill="#F9EFCB"/>
<path transform="translate(483,1324)" d="m0 0h1l3 31 1 7-1 1h-5l-1-7v-24l1-7z" fill="#F9F1D3"/>
<path transform="translate(193,1319)" d="m0 0 6 1 5 11 9 22v3l-3-1-8-20-3-7-3-6 1 4 10 24-1 3-13-29z" fill="#FEFEFE"/>
<path transform="translate(1438,1321)" d="m0 0h3l1 11v31h-5l1-23z" fill="#F9EFCB"/>
<path transform="translate(670,1319)" d="m0 0 10 1 5 3 2 5-5 1-8-4-15-1-7 5 2-4 5-4z" fill="#F9EFCB"/>
<path transform="translate(257,1358)" d="m0 0h24l1 4-1 1h-29v-3z" fill="#F9EFCB"/>
<path transform="translate(548,1095)" d="m0 0 5 2 19 8 16 6 5 3v2l-33-11-10-6z" fill="#FAF2D7"/>
<path transform="translate(626,1323)" d="m0 0h3v40h-5l-2-4 3-3z" fill="#F9EFCD"/>
<path transform="translate(443,1319)" d="m0 0h4l8 17-1 3-3-5-2 4-3-7v-3l-6 6 1-6v-2l-4 7-1-3 5-9z" fill="#FDFDFC"/>
<path transform="translate(763,1356)" d="m0 0h2v2l-3 3-3 1h-26l1-3 3-1z" fill="#F9EFCD"/>
<path transform="translate(1194,1322)" d="m0 0 11 1 8 5 1 1 1 13-1 2h-6v-14l-2-3-3-1v-2h-7z" fill="#F9F1D3"/>
<path transform="translate(1487,1336)" d="m0 0h2l10 19 3 4v4l-5-1-7-10-1-3v-7z" fill="#F9EFCD"/>
<path transform="translate(1073,1320)" d="m0 0h31v5h-24l-1 12h-1v-13l1-1h16l7 1v-2l-29 1z" fill="#FEFEFE"/>
<path transform="translate(1185,1326)" d="m0 0 1 4v27l1 6h-5l-1-4 1-29z" fill="#F9EFCB"/>
<path transform="translate(802,1144)" d="m0 0 5 1 14 3 13 1 5 2-4 2-3 1-14-2-12-4-4-2z" fill="#FAF2D5"/>
<path transform="translate(740,1135)" d="m0 0h2v8l-1 4h2l-1 3h-25l-17 1-3-2 1-1 42-1-1-11z" fill="#F9EFCB"/>
<path transform="translate(881,805)" d="m0 0h23l1 3-14 2h-11l-6-2v-2z" fill="#F9EFCC"/>
<path transform="translate(1e3 1127)" d="m0 0 2 2-1 7 2-1-2 5-6 7-7 4-7 1 4-3 1-1h-5l4-2 7-4 5-6z" fill="#FEFEFE"/>
<path transform="translate(1549,1325)" d="m0 0 3 2 1 3v10l-3 5-3-1h-5l3-5 1-8h2z" fill="#FDFDFD"/>
<path transform="translate(986,1147)" d="m0 0 3 1-8 4h-21l-5-1 1-3h13z" fill="#F9EFCB"/>
<path transform="translate(1027,937)" d="m0 0 1 3-8 23-5 7-1-2 4-16h2l3-9z" fill="#F9F0CF"/>
<path transform="translate(567,1036)" d="m0 0h17l6 3 2 4-6-1-3-1h-22l3-3h3z" fill="#F9F1D3"/>
<path transform="translate(1114,861)" d="m0 0h2l11 28 7 20-1 3-4-9-15-40z" fill="#FEFEFE"/>
<path transform="translate(814,1053)" d="m0 0 1 4-2 17v59h-1l-1-12v-61z" fill="#F9EFCB"/>
<path transform="translate(766,1325)" d="m0 0 4 4 3 7v11l-3 7h-1z" fill="#FEFEFE"/>
<path transform="translate(1036,918)" d="m0 0 1 3-14 40-1 2h-2l3-11 9-26z" fill="#FEFEFE"/>
<path transform="translate(1105,1105)" d="m0 0h3l1 31-4 1z" fill="#F9EFCB"/>
<path transform="translate(232,1324)" d="m0 0 1 3-11 25-5 10-4 2-2-2 5-5 7-14 4-9z" fill="#FEFEFE"/>
<path transform="translate(1080,1340)" d="m0 0h19l1 4-1 1h-15l-4-2z" fill="#F9EFCB"/>
<path transform="translate(1056,862)" d="m0 0 1 4-10 28-6 16h-2l1-6z" fill="#FEFEFE"/>
<path transform="translate(371,1324)" d="m0 0 2 1v38h-3v-38z" fill="#F9EFCB"/>
<path transform="translate(569,1319)" d="m0 0h2v38h-1v-35h-4l-1 38h-1v-40z" fill="#FEFEFE"/>
<path transform="translate(462,805)" d="m0 0h25l6 2-4 2h-15l-12-2z" fill="#F9EFCC"/>
<path transform="translate(453,1346)" d="m0 0h1l1 6h-22l1-5 19 1z" fill="#FEFEFE"/>
<path transform="translate(1310,1321)" d="m0 0h3v42l-3-1z" fill="#F9EFCB"/>
<path transform="translate(349,909)" d="m0 0h2l-1 13-3 15-3 7-2 1 2-10 3-16z" fill="#F9EFCB"/>
<path transform="translate(397,804)" d="m0 0h19l-3 1 1 2v16h-1l-1-14-13-1-3-1z" fill="#FDFDFC"/>
<path transform="translate(1030,1358)" d="m0 0h25l-1 5h-13l3-1v-2h-9l-5-1z" fill="#FDFCF9"/>
<path transform="translate(791,1358)" d="m0 0 26 1v3h-25z" fill="#F9EFCB"/>
<path transform="translate(614,958)" d="m0 0 4 1 12 6 12 4 1 2-8-1-8-2-11-7z" fill="#F9F1D4"/>
<path transform="translate(1631,1358)" d="m0 0h24v5h-15l4-1v-2l-13-1z" fill="#FDFCF9"/>
<path transform="translate(231,1319)" d="m0 0h4l-1 5-3-1-2 5-7 14-2 1 3-9 6-13z" fill="#FEFEFE"/>
<path transform="translate(1236,1359)" d="m0 0h25v3h-19l-5 1z" fill="#F9EFCB"/>
<path transform="translate(670,1319)" d="m0 0 10 1 2 2-23 2-7 5 2-4 5-4z" fill="#FEFEFE"/>
<path transform="translate(1079,1339)" d="m0 0 2 4 3 1h15v-4l3 1-1 5h-21l-1 11h-1v-15z" fill="#FEFEFE"/>
<path transform="translate(998,1323)" d="m0 0h3l2 4v8l-2 5-2-1-1-7z" fill="#FAF4DC"/>
<path transform="translate(267,1358)" d="m0 0h14l1 4-1 1h-13l2-3z" fill="#FEFEFE"/>
<path transform="translate(1572,1331)" d="m0 0h1l2 24 1 8-5-1 2-1-1-10z" fill="#F9EFCB"/>
<path transform="translate(1686,1332)" d="m0 0 5 5 7 11 1 5-4-2-9-16z" fill="#F9F0CE"/>
<path transform="translate(823,1043)" d="m0 0 2 1-6 8-3 9-2 13h-1v-11l2-10 6-9z" fill="#FEFEFE"/>
<path transform="translate(1467,1346)" d="m0 0 1 2-5 15h-4l3-10 3-6z" fill="#FAF4DC"/>
<path transform="translate(1126,1329)" d="m0 0h2l-2 5-2 10 3 9-4-4-2-6 1-8z" fill="#FEFEFE"/>
<path transform="translate(1e3 1343)" d="m0 0 4 4v9l-4 5-5 1 3-3h2z" fill="#FEFEFE"/>
<path transform="translate(684,1353)" d="m0 0h3l-1 5-8 5-3-1 6-2v-2h-6l3-2z" fill="#FEFEFE"/>
<path transform="translate(1547,1343)" d="m0 0 2 1v2l-7 1-11 2-3-1v-2h10v-2z" fill="#F9F0D0"/>
<path transform="translate(232,968)" d="m0 0h10v1h-5l-2 6h-5v-6z" fill="#FEFEFE"/>
<path transform="translate(765,1348)" d="m0 0 2 4 1 5-4 3-2-1 3-1v-2l-2 1h-6l5-4z" fill="#FEFEFE"/>
<path transform="translate(1731,1325)" d="m0 0h3l-1 13-3-1-1-2 1-9z" fill="#F9F1D2"/>
<path transform="translate(959,940)" d="m0 0h4l-1 9-3-1v2h-2l1-8z" fill="#FEFEFE"/>
<path transform="translate(856,1149)" d="m0 0m-19 1h19l-3 2-18 2v-2z" fill="#FEFEFE"/>
<path transform="translate(271,803)" d="m0 0h21l5 2v1l-9-1h-9l-6 1v-2z" fill="#F9EFCB"/>
<path transform="translate(812,968)" d="m0 0 1 3-13 1-3 1v-4z" fill="#FEFEFE"/>
<path transform="translate(1287,806)" d="m0 0h13l4 1v2h-15z" fill="#F9EFCB"/>
<path transform="translate(684,1323)" d="m0 0 3 3-1 3-6-1-6-3v-1l10 1z" fill="#FEFEFE"/>
<path transform="translate(1542,1322)" d="m0 0h5l2 2-1 7-3-1-1-7z" fill="#F9F0CF"/>
<path transform="translate(1544,1345)" d="m0 0 4 2-7 3h-8l1-2z" fill="#FEFEFE"/>
<path transform="translate(1015,961)" d="m0 0h1l-1 7-3 3h-9l-1 2h-2l1-4 11-1z" fill="#FEFEFE"/>
<path transform="translate(1047,1037)" d="m0 0h5l1 5-11-2-1-2z" fill="#FDFBF6"/>
<path transform="translate(1206,1357)" d="m0 0 7 1 2 5-6-1z" fill="#F9F1D2"/>
<path transform="translate(283,909)" d="m0 0 9 2 8 4-3 1-12-4v-2z" fill="#FAF2D6"/>
<path transform="translate(730,947)" d="m0 0v3l-6 7-5 4-2-1z" fill="#F9EFCB"/>
<path transform="translate(767,1344)" d="m0 0h2v11h-2l-1-3v-7z" fill="#F9F0D0"/>
<path transform="translate(1487,1341)" d="m0 0 3 1v10h-6l1-2h2v-2h2z" fill="#FEFEFE"/>
<path transform="translate(855,1147)" d="m0 0h4v2l-10 2h-6v-1z" fill="#F9EFCB"/>
</svg>
